<?xml version="1.0" encoding="utf-8"?>
<!-- Generator: Adobe Illustrator 21.1.0, SVG Export Plug-In . SVG Version: 6.00 Build 0)  -->
<svg version="1.1" id="Layer_1" xmlns="http://www.w3.org/2000/svg" xmlns:xlink="http://www.w3.org/1999/xlink" x="0px" y="0px"
	 width="507.8px" height="84.7px" viewBox="0 0 507.8 84.7" style="enable-background:new 0 0 507.8 84.7;" xml:space="preserve">
<style type="text/css">
	.st0{fill:#FFFFFF;}
</style>
<g>
	<g>
		<path class="st0" d="M99.2,28.9c4.4,0,6.7,2.4,6.7,6.8v13.2c0,4.4-2.4,6.8-6.7,6.8h-5.8V28.9H99.2z M97.5,52h1.6
			c2,0,2.8-1,2.8-3.3V36c0-2.3-0.9-3.3-2.8-3.3h-1.6V52z"/>
		<path class="st0" d="M120.1,55.7l-0.9-6.1h-4.5l-0.9,6.1h-4.1l4.7-26.8h5.2l4.6,26.8H120.1z M115.3,46h3.4l-1.6-11.3H117L115.3,46
			z"/>
		<path class="st0" d="M134.2,44.4h-1.9v11.3h-4.1V28.9h5.9c4.4,0,6.7,2.4,6.7,6.8v1.9c0,2.8-1,4.8-2.9,5.9l3.7,12.2h-4.2
			L134.2,44.4z M132.3,40.7h1.6c2,0,2.8-1,2.8-3.3V36c0-2.3-0.9-3.3-2.8-3.3h-1.6V40.7z"/>
		<path class="st0" d="M159.9,55.7h-4.3l-4-11.7l-1.8,3.4v8.3h-4.1V28.9h4.1v11.2h0.1l5.6-11.2h4.2l-5.5,10.6L159.9,55.7z"/>
		<path class="st0" d="M169.4,44.4h-1.9v11.3h-4.1V28.9h5.9c4.4,0,6.7,2.4,6.7,6.8v1.9c0,2.8-1,4.8-2.9,5.9l3.7,12.2h-4.3
			L169.4,44.4z M167.5,40.7h1.6c2,0,2.8-1,2.8-3.3V36c0-2.3-0.9-3.3-2.8-3.3h-1.6V40.7z"/>
		<path class="st0" d="M194,35.3v14c0,4.2-2.5,6.8-6.5,6.8c-4.1,0-6.5-2.6-6.5-6.8v-14c0-4.2,2.5-6.8,6.5-6.8
			C191.5,28.6,194,31.1,194,35.3z M185,35.4v13.9c0,2,0.9,3.1,2.5,3.1c1.6,0,2.5-1.1,2.5-3.1V35.4c0-2-0.9-3.1-2.5-3.1
			C185.9,32.3,185,33.4,185,35.4z"/>
		<path class="st0" d="M208.1,55.7l-0.9-6.1h-4.5l-0.9,6.1h-4.1l4.6-26.8h5.2l4.6,26.8H208.1z M203.3,46h3.4l-1.6-11.3H205L203.3,46
			z"/>
		<path class="st0" d="M227.6,34.6v0.7l-3.9,0.4v-1c0-1.5-0.7-2.3-2.1-2.3c-1.3,0-2.1,0.8-2.1,2.3V35c0,1.6,0.7,2.9,3.4,5.2
			c3.7,3.1,5.1,5.4,5.1,8.6v1.3c0,3.8-2.3,6-6.3,6s-6.3-2.2-6.3-6v-1.8l3.9-0.4v1.9c0,1.7,0.8,2.5,2.3,2.5c1.5,0,2.3-0.8,2.3-2.5
			v-0.9c0-1.7-0.8-3-3.5-5.3c-3.7-3.1-5-5.4-5-8.5v-0.6c0-3.8,2.2-6,6-6S227.6,30.7,227.6,34.6z"/>
		<path class="st0" d="M238.5,32.8v23h-4.1v-23h-4.3v-3.9h12.7v3.8h-4.3V32.8z"/>
		<path class="st0" d="M261,28.9c4.4,0,6.7,2.4,6.7,6.8v13.2c0,4.4-2.4,6.8-6.7,6.8h-5.8V28.9H261z M259.2,52h1.6c2,0,2.8-1,2.8-3.3
			V36c0-2.3-0.9-3.3-2.8-3.3h-1.6V52z"/>
		<path class="st0" d="M273.2,55.7V28.9h4.1v26.8H273.2z"/>
		<path class="st0" d="M295.5,35v1.8l-3.9,0.2v-1.6c0-2.1-0.8-3.1-2.4-3.1c-1.6,0-2.4,1-2.4,2.7v14.6c0,1.8,0.8,2.7,2.3,2.7
			c1.6,0,2.3-1,2.3-3.1v-4.6h-2.3v-3.8h6.3v8.8c0,4.1-2.3,6.4-6.4,6.4c-4,0-6.3-2.4-6.3-6.4V35c0-4.1,2.3-6.4,6.3-6.4
			C293.1,28.6,295.5,30.9,295.5,35z"/>
		<path class="st0" d="M300.8,55.7V28.9h4.1v26.8H300.8z"/>
		<path class="st0" d="M317.3,32.8v23h-4.1v-23h-4.3v-3.9h12.7v3.8h-4.3V32.8z"/>
		<path class="st0" d="M333.3,55.7l-0.9-6.1h-4.5l-0.9,6.1h-4.1l4.6-26.8h5.2l4.6,26.8H333.3z M328.4,46h3.4l-1.6-11.3h-0.1
			L328.4,46z"/>
		<path class="st0" d="M352.7,51.9v3.8h-10.8V28.9h4.1v23H352.7z"/>
		<path class="st0" d="M365.8,61.5V23.2h3.1v38.3H365.8z"/>
	</g>
	<g>
		<path class="st0" d="M47,63c2-6.1,2.2-6.3,6.2-12C68.8,29.1,39,5.2,22.7,26.4c-6.2,8.1-3.8,18.8,2.4,26.1c3.5,4.2,6.2,5.3,8,10.1
			c-2.3,0.2-4.4,0.5-6.1,0.9s-2.1,2.3,0.5,2.9s7.8,1,10.7,1.5c1.4,0.2,3.7,0.6,5.9,1.1c-0.8,0-1.6,0.1-2.4,0.2
			c-1.9,0.3-9,0.8-9.8,2.5c-1.1,2.1,1.9,2.8,4.2,3c-0.8,0.2-1.6,0.6-2.2,1.2c-1.3,1.1-2.1,3.3,0.3,3c6.1-0.7,10.6-0.7,12.8,5.8
			c0.1-4.5-2.5-6.6-6.8-7.4C38.1,76.9,37,77,35.7,77c2.2-0.9,6.1-0.4,7.6-0.1c1.3,0.2,5.3,1.5,6.1-0.2c0.8-1.9-3-3.2-7.2-4.2
			c0.6-0.1,1.3-0.1,1.8-0.2c1.7-0.1,6,0.2,7-1.6c2.2-4.2-10.8-5.5-12.6-5.8c-1.2-0.1-2.9-0.3-4.5-0.4c6.6-0.7,13-0.2,19.5-0.6
			C51.6,63.7,49.4,63.3,47,63z M42.2,62.6c0.1-2.4,0.5-5.4,1.3-8.1c11.4-4.4,8.4-19.2,8.4-19.2C50,28.6,44,25.4,44,25.4
			c-10.7,5.3-8,12.6-6.6,15c0.3,0.6,1.1,1.5,1.3,1.9c7,9.1,1.9,13,1.9,13c0.5-0.1,1-0.2,1.5-0.4c-0.9,2.5-1.3,5.2-1.3,7.6
			c-0.1,0-0.2,0-0.2,0c-0.2-2.4-0.6-4.8-1.2-7.1l0.3-0.1c4.2-3.9-3.9-14.7-3.9-14.7C28.7,28.8,43,25,43,25s-8.9-3.9-16.3,5.6
			c0,0-5.8,7.5,1.2,18.9c0,0,3,5.5,9.7,5.9c0.4,2,0.6,4.3,0.9,7.1c-1.6,0-3.2,0-4.7,0.1v-0.1c0-3.6-4.9-8.4-7-11.3
			C23,46,20.7,38.7,23.2,32.5c5.5-13.4,28-14,30.8,3.6c1.5,9.3-1.5,10.9-5.2,18c-1.7,3.3-2.3,5.5-2.2,8.9
			C45.2,62.8,43.7,62.7,42.2,62.6z M34.8,53.6c0,0-9.1-3.6-8.4-15C26.4,38.5,27.6,47.8,34.8,53.6z"/>
		<g>
			<path class="st0" d="M59.1,32.4c2.4,0.8,3.5,0.7,5.9,0.7c3.1,0,4.5-0.3,7.5-1.1c2.3-0.6,1.5-0.3,3.3-1.3l-1.5-0.5
				c-1.9-0.4-6.4-0.4-8.4,0C63.5,30.8,61.4,31,59.1,32.4L59.1,32.4z"/>
			<path class="st0" d="M54.6,21.8c2.6-0.2,3.5-0.7,5.8-1.6c2.9-1.2,4-2,6.5-3.8c1.9-1.4,1.3-0.8,2.6-2.5L67.9,14
				c-1.9,0.3-6.1,2.1-7.7,3.2C58,18.6,56.2,19.6,54.6,21.8L54.6,21.8z"/>
			<path class="st0" d="M45.2,16.8c2.1-1.5,2.6-2.4,4-4.4c1.9-2.5,2.4-3.8,3.5-6.7c0.9-2.2,0.6-1.4,0.9-3.5l-1.3,0.9
				c-1.4,1.3-4.1,5-4.9,6.8C46.4,12.3,45.5,14.1,45.2,16.8L45.2,16.8z"/>
			<path class="st0" d="M35.6,16.8c0.9-2.4,0.7-3.5,0.8-5.9c0.1-3.1-0.3-4.5-1-7.5C34.8,1,35.1,1.9,34.1,0l-0.6,1.5
				c-0.4,1.9-0.4,6.4-0.1,8.4C34,12.4,34.3,14.5,35.6,16.8L35.6,16.8z"/>
			<path class="st0" d="M58,43.9c2.2,1,4.2,1.5,6.5,2c1.6,0.4,5.7,0.7,7.2,0.6l1.3-0.3c-1.7-0.9-1-0.7-3-1.3c-2.5-0.7-4-1.1-6.6-1.3
				C61.1,43.5,60.3,43.4,58,43.9L58,43.9z"/>
			<path class="st0" d="M54.8,53.8c2.1,1.8,3.6,2.5,6,3.7c1.4,0.7,5.4,2,6.8,2.2l1.8,0.1l-1.3-1.3c-1.9-1.5-5.1-3-7.4-3.7
				C58.2,54.2,57.5,53.9,54.8,53.8L54.8,53.8z"/>
			<path class="st0" d="M16.8,34.6c-2.4,0.9-3.5,0.7-5.9,0.8c-3.1,0.1-4.5-0.2-7.5-1C1,33.8,1.9,34.1,0,33.1l1.5-0.6
				c1.9-0.4,6.4-0.5,8.4-0.1C12.4,33,14.5,33.3,16.8,34.6L16.8,34.6z"/>
			<path class="st0" d="M21.2,23.9c-2.6-0.1-3.5-0.6-5.8-1.5c-2.9-1.1-4.1-1.9-6.6-3.7c-1.9-1.4-1.3-0.8-2.6-2.4h1.6
				c1.9,0.3,6.1,2,7.8,3.1C17.7,20.8,19.5,21.8,21.2,23.9L21.2,23.9z"/>
			<path class="st0" d="M27.2,17c-1.9-1.3-2.3-2.2-3.6-3.9c-1.7-2.3-2.1-3.4-3.1-6c-0.8-2-0.6-1.2-0.8-3.1l1.2,0.8
				c1.3,1.2,3.6,4.5,4.3,6.1C26.1,13,26.9,14.7,27.2,17L27.2,17z"/>
			<path class="st0" d="M18.1,46.1c-2.2,1.1-4.1,1.5-6.5,2.1C10,48.6,5.9,49,4.4,48.9l-1.3-0.2c1.7-1,1-0.7,3-1.3
				c2.5-0.8,4-1.2,6.6-1.4C14.9,45.7,15.8,45.5,18.1,46.1L18.1,46.1z"/>
			<path class="st0" d="M20.8,54.8c-1.7,2.2-3.1,3.1-5.2,4.8c-1.2,0.9-4.9,2.9-6.3,3.4l-1.7,0.5l1-1.5c1.6-1.8,4.5-3.9,6.6-5
				C17.5,55.8,18.2,55.3,20.8,54.8L20.8,54.8z"/>
		</g>
	</g>
	<g>
		<path class="st0" d="M398.9,42.6h2.1v7.5c-2,1.6-4.9,2.7-7.7,2.7c-6,0-10.8-4.6-10.8-10.4c0-5.8,4.8-10.4,10.9-10.4
			c2.9,0,5.6,1.1,7.6,2.8l-1.4,1.7c-1.7-1.5-3.9-2.4-6.2-2.4c-4.7,0-8.5,3.7-8.5,8.2c0,4.6,3.8,8.3,8.5,8.3c1.9,0,3.8-0.6,5.4-1.7
			V42.6z"/>
		<path class="st0" d="M420.2,52.6l-4.3-6.6c-0.4,0-0.9,0.1-1.3,0.1h-5.5v6.5h-2.4V32h7.8c5.2,0,8.1,2.5,8.1,6.9
			c0,3.4-1.7,5.7-4.7,6.7l4.9,7H420.2z M414.6,43.9c3.7,0,5.9-1.7,5.9-4.9c0-3.2-2.1-4.8-5.9-4.8h-5.5v9.7H414.6z"/>
		<path class="st0" d="M441,47.4h-11.2l-2.3,5.3H425l9.3-20.6h2.4l9.2,20.6h-2.6L441,47.4z M440.1,45.2l-4.7-10.6l-4.6,10.6H440.1z"
			/>
		<path class="st0" d="M468.1,42.3c0,5.9-4.6,10.3-10.7,10.3h-8.2V32h8.3C463.5,32,468.1,36.5,468.1,42.3z M465.7,42.4
			c0-4.7-3.7-8.2-8.3-8.2h-5.9v16.3h6C462.1,50.5,465.7,47,465.7,42.4z"/>
		<path class="st0" d="M486.4,32v2.2h-11.6v6.9h10.4v2.2h-10.4v7.2h12v2.2h-14.4V32H486.4z"/>
		<path class="st0" d="M505.1,52.6l-4.3-6.6c-0.4,0-0.9,0.1-1.3,0.1h-5.5v6.5h-2.4V32h7.8c5.2,0,8.1,2.5,8.1,6.9
			c0,3.4-1.7,5.7-4.7,6.7l4.9,7H505.1z M499.4,43.9c3.7,0,5.9-1.7,5.9-4.9c0-3.2-2.1-4.8-5.9-4.8h-5.5v9.7H499.4z"/>
	</g>
</g>
</svg>
