<?xml version="1.0" encoding="utf-8"?>
<!-- Generator: Adobe Illustrator 21.1.0, SVG Export Plug-In . SVG Version: 6.00 Build 0)  -->
<svg version="1.1" id="Layer_1" xmlns="http://www.w3.org/2000/svg" xmlns:xlink="http://www.w3.org/1999/xlink" x="0px" y="0px"
	 width="320px" height="568px" viewBox="0 0 320 568" style="enable-background:new 0 0 320 568;" xml:space="preserve">
<style type="text/css">
	.st0{fill:#D8DCE5;}
	.st1{fill:#FFFFFF;}
	.st2{opacity:0.1;fill:#181B28;}
</style>
<g>
	<path class="st0" d="M310,568H10c-5.5,0-10-4.5-10-10V10C0,4.5,4.5,0,10,0h300c5.5,0,10,4.5,10,10v548C320,563.5,315.5,568,310,568
		z"/>
	<path class="st1" d="M291.1,534.5H28.9c-5.5,0-10-4.5-10-10v-481c0-5.5,4.5-10,10-10h262.3c5.5,0,10,4.5,10,10v481
		C301.1,530,296.6,534.5,291.1,534.5z"/>
	<path class="st2" d="M215.5,555.5h-111c-2.8,0-5-2.2-5-5l0,0c0-2.8,2.2-5,5-5h111c2.8,0,5,2.2,5,5l0,0
		C220.5,553.3,218.3,555.5,215.5,555.5z"/>
</g>
</svg>
